<?xml version="1.0" encoding="UTF-8" standalone="no"?>
<svg
   xmlns:dc="http://purl.org/dc/elements/1.1/"
   xmlns:cc="http://creativecommons.org/ns#"
   xmlns:rdf="http://www.w3.org/1999/02/22-rdf-syntax-ns#"
   xmlns:svg="http://www.w3.org/2000/svg"
   xmlns="http://www.w3.org/2000/svg"
   xmlns:sodipodi="http://sodipodi.sourceforge.net/DTD/sodipodi-0.dtd"
   xmlns:inkscape="http://www.inkscape.org/namespaces/inkscape"
   width="500px"
   height="500px"
   viewBox="0 0 500 500"
   version="1.1"
   id="SVGRoot"
   sodipodi:docname="logo.svg"
   inkscape:version="1.0.1 (3bc2e813f5, 2020-09-07)">
  <defs
     id="defs20221" />
  <sodipodi:namedview
     id="base"
     pagecolor="#ffffff"
     bordercolor="#666666"
     borderopacity="1.0"
     inkscape:pageopacity="0.0"
     inkscape:pageshadow="2"
     inkscape:zoom="0.5"
     inkscape:cx="514.50747"
     inkscape:cy="450.27973"
     inkscape:document-units="px"
     inkscape:current-layer="g54310"
     inkscape:document-rotation="0"
     showgrid="false"
     inkscape:window-width="1920"
     inkscape:window-height="1001"
     inkscape:window-x="-9"
     inkscape:window-y="1341"
     inkscape:window-maximized="1"
     showguides="true"
     inkscape:guide-bbox="true">
    <sodipodi:guide
       position="-102.02541,424.23856"
       orientation="1,0"
       id="guide862" />
    <sodipodi:guide
       position="251.77277,69.580346"
       orientation="0,-1"
       id="guide989" />
    <sodipodi:guide
       position="233.00899,77.852144"
       orientation="1,0"
       id="guide991" />
    <sodipodi:guide
       position="362.1157,69.580584"
       orientation="1,0"
       id="guide1029" />
    <sodipodi:guide
       position="122.66593,227.05184"
       orientation="1,0"
       id="guide1061" />
    <sodipodi:guide
       position="299.18306,377.16161"
       orientation="0,-1"
       id="guide1063" />
    <sodipodi:guide
       position="100.26102,227.05187"
       orientation="1,0"
       id="guide1066" />
  </sodipodi:namedview>
  <metadata
     id="metadata20224">
    <rdf:RDF>
      <cc:Work
         rdf:about="">
        <dc:format>image/svg+xml</dc:format>
        <dc:type
           rdf:resource="http://purl.org/dc/dcmitype/StillImage" />
        <dc:title />
      </cc:Work>
    </rdf:RDF>
  </metadata>
  <g
     inkscape:label="Livello 1"
     inkscape:groupmode="layer"
     id="layer1">
    <g
       id="g54310"
       transform="matrix(39.568104,0,0,39.568104,-4651.545,606.61894)">
      <path
         class="st0"
         d="m 126.2322,9.7669827 c -0.70321,0 -1.27386,-0.570642 -1.27386,-1.27388 v -8.66536057 c 0,-0.703219 0.57065,-1.27389303 1.27386,-1.27389303 h 8.66538 c 0.70321,0 1.27385,0.57067403 1.27385,1.27389303 V 8.4931027 c 0,0.703238 -0.57064,1.27388 -1.27385,1.27388 z"
         id="path1410-6-7"
         style="fill:#000000;fill-opacity:1;stroke:none;stroke-width:0.762;stroke-miterlimit:10;stroke-dasharray:none;stroke-opacity:1" />
      <path
         id="path1430-6-9"
         style="fill:#ffffff;fill-opacity:1;stroke-width:0.0989831"
         d="M 132.51611,-0.11589887 C 131.32139,2.3161241 130.12678,4.7472502 128.93204,7.179274 128.43812,6.21223 127.94517,5.2461502 127.45125,4.280057 h -0.99904 l 2.00673,4.1591736 h 0.78866 c 0.72555,-1.4797975 1.45095,-2.9594812 2.17749,-4.4383042 0.0992,-0.2022908 0.19857,-0.4046954 0.2978,-0.6069836 h 1.7909 c 0.0852,0.2214384 0.17026,0.4430073 0.25545,0.6643568 h 0.91161 l -1.6215,-4.17419847 z m 0.21083,1.46486197 c 0.17757,0.461381 0.35519,0.923085 0.53276,1.384723 h -1.2126 c 0.2265,-0.461541 0.45294,-0.923172 0.67984,-1.384723 z" />
      <path
         id="path1434-8-9"
         style="fill:#ffffff;fill-opacity:1;stroke-width:0.098983"
         d="M 126.45134,-0.11697037 V 4.1003921 h 0.9689 l -0.0168,-1.1868382 c 0.10987,0.02781 0.53453,-0.00879 0.53453,-0.00879 l 0.96802,1.1966611 h 1.01062 l -1.1551,-1.4283128 c 0,0 0.71169,-0.3474553 0.93243,-0.9086884 0.15155,-0.3850328 0.0357,-0.77798697 0.01,-0.86011697 -0.195,-0.6107629 -0.87201,-1.030459 -1.68366,-1.010619 -0.52363,-0.00376 -1.0463,-0.00666 -1.56894,-0.010662 z m 0,4.21736247 h -1e-4 l 1e-4,0.00128 z m 1.43813,-3.75830437 c 0.12597,-3.337e-4 0.25207,0.01757 0.36567,0.053754 0.11359,0.036186 0.20563,0.087234 0.27148,0.1504032 0.0659,0.063169 0.10549,0.1384934 0.10549,0.2187684 a 0.03025437,0.03025437 0 0 1 -0.0313,0.031246 l -1.41602,0.0039 a 0.03025437,0.03025437 0 0 1 -0.0312,-0.031246 c -10e-4,-0.080268 0.0367,-0.1551765 0.10158,-0.2187684 0.0648,-0.063592 0.15651,-0.1155274 0.26951,-0.1523285 0.113,-0.036802 0.23886,-0.055395 0.36483,-0.055729 z m -5e-5,0.059974 c -0.11966,3.49e-4 -0.23916,0.017826 -0.34523,0.052372 -0.10607,0.034544 -0.18994,0.083651 -0.24607,0.1387047 -0.0468,0.045918 -0.0632,0.09605 -0.0703,0.1464543 l 1.33008,-0.0039 c -0.008,-0.050449 -0.0246,-0.1006851 -0.0723,-0.1464543 -0.0572,-0.054828 -0.14332,-0.1027411 -0.25001,-0.1367301 -0.1067,-0.033989 -0.22651,-0.050796 -0.34617,-0.0504466 z m -0.25342,0.4410413 c 0.0487,0 0.0806,0.033463 0.10741,0.058641 0.0268,0.025177 0.0479,0.042944 0.0664,0.042944 0.0179,0 0.04,-0.016229 0.0664,-0.041019 0.0264,-0.02479 0.0573,-0.058592 0.10544,-0.058592 0.0469,0 0.0781,0.032796 0.10351,0.056667 0.0254,0.02387 0.0458,0.039045 0.0625,0.039045 0.0176,0 0.0383,-0.016469 0.0644,-0.041019 0.0262,-0.024549 0.0576,-0.056667 0.10549,-0.056667 0.0475,0 0.0796,0.032386 0.10548,0.056667 0.0259,0.024282 0.0452,0.039045 0.0625,0.039045 6.4e-4,0 0.0205,-0.00711 0.0352,-0.017572 0.0146,-0.010467 0.0254,-0.021472 0.0254,-0.021472 a 0.03025135,0.03025135 0 0 1 0.043,0.00197 0.03025135,0.03025135 0 0 1 -0.002,0.042944 c 0,0 -0.013,0.012253 -0.0313,0.025371 -0.0183,0.013118 -0.0394,0.029321 -0.0703,0.029321 -0.0475,0 -0.0796,-0.032388 -0.10548,-0.056667 -0.0259,-0.024278 -0.0452,-0.039045 -0.0625,-0.039045 -0.0176,0 -0.0383,0.016468 -0.0645,0.041019 -0.0262,0.024551 -0.0576,0.056617 -0.10543,0.056617 -0.047,0 -0.0781,-0.032742 -0.10351,-0.056617 -0.0254,-0.023874 -0.0459,-0.039045 -0.0625,-0.039045 -0.0179,0 -0.038,0.016229 -0.0644,0.041019 -0.0264,0.02479 -0.0593,0.058592 -0.10746,0.058592 -0.0487,0 -0.0806,-0.033411 -0.10741,-0.058592 -0.0268,-0.025181 -0.048,-0.042994 -0.0664,-0.042994 -0.0178,0 -0.0382,0.016349 -0.0645,0.041019 -0.0263,0.024671 -0.0594,0.058592 -0.10741,0.058591 -0.0455,0 -0.0754,-0.031938 -0.0996,-0.054692 -0.0242,-0.022755 -0.0416,-0.037173 -0.0567,-0.03712 -0.002,1.01e-5 -0.0234,0.00805 -0.039,0.019547 -0.0156,0.0115 -0.0273,0.023446 -0.0273,0.023446 a 0.03025135,0.03025135 0 0 1 -0.0429,0 0.03025135,0.03025135 0 0 1 0.002,-0.042993 c 0,0 0.0139,-0.015047 0.0332,-0.029271 0.0193,-0.014223 0.0421,-0.031046 0.0742,-0.031246 0.0455,-1.62e-4 0.0754,0.031922 0.0996,0.054692 0.0242,0.02277 0.0415,0.03707 0.0567,0.03707 0.0178,0 0.0401,-0.016301 0.0664,-0.04097 0.0263,-0.02467 0.0575,-0.058641 0.10548,-0.058641 z m 0.88944,0.21240087 c 0.0385,0 0.0695,0.03103 0.0695,0.0695 0,0.03847 -0.0186,0.062967 -0.056,0.072067 0,0 -0.0682,-0.00271 -0.0856,0.014858 -0.0125,0.012613 -0.0145,0.045707 -0.0148,0.057802 h 0.1468 c 0.0724,0 0.13061,0.058247 0.13061,0.1306095 0,0.07236 -0.0583,0.1306094 -0.13061,0.1306094 h -1.31769 c -0.0724,0 -0.13061,-0.058246 -0.13061,-0.1306094 0,-0.07236 0.0583,-0.1306095 0.13061,-0.1306095 h 0.11541 c 0.003,-0.020773 0.004,-0.048997 -0.0137,-0.061751 -0.0291,-0.02108 -0.11531,-0.013476 -0.11531,-0.013476 -0.0382,-0.00491 -0.0586,-0.030882 -0.0586,-0.069352 0,-0.03847 0.0309,-0.0695 0.0694,-0.0695 z m -0.29597,0.1382111 c -0.0203,-5.722e-4 -0.0405,0.00471 -0.054,0.016931 -0.0166,0.015053 -0.0227,0.035929 -0.0239,0.059085 h 0.14907 c -10e-4,-0.027772 3e-5,-0.045185 -0.0159,-0.057802 -0.0143,-0.01122 -0.0348,-0.017642 -0.0552,-0.018214 z m -0.48793,0.00543 c -0.0832,-9.48e-5 -0.16519,0.00164 -0.2241,0.00479 -0.0201,0.00106 -0.018,0.039577 -0.0145,0.065798 h 0.49495 c -3.6e-4,-0.034866 -0.005,-0.063244 -0.0248,-0.064466 -0.0639,-0.0041 -0.14835,-0.00602 -0.23155,-0.00612 z m -0.55907,0.405699 a 0.03025437,0.03025437 0 0 1 0.002,0 l 1.41602,0.0039 a 0.03025437,0.03025437 0 0 1 0.0313,0.031245 c 0,0.1608232 -0.14728,0.3539624 -0.37895,0.4277635 -0.22819,0.072698 -0.50362,0.057567 -0.72852,-0.015648 -0.22947,-0.074736 -0.37385,-0.2572964 -0.37109,-0.4179402 a 0.03025437,0.03025437 0 0 1 0.0289,-0.02932 z m 0.059,0.060566 c 0.0167,0.1177671 0.11124,0.2657383 0.30273,0.3281034 0.21326,0.069426 0.4771,0.083308 0.68948,0.015647 0.19219,-0.061224 0.29194,-0.2202453 0.31053,-0.3398512 z" />
      <rect
         style="fill:#010101;fill-opacity:1;fill-rule:evenodd;stroke-width:0.190709;stroke-linecap:round;stroke-linejoin:round;paint-order:markers stroke fill;stop-color:#000000"
         id="rect909"
         width="10.715701"
         height="10.715701"
         x="118.51832"
         y="-14.370639"
         rx="2.2492864"
         ry="2.2492864" />
      <rect
         style="fill:#f07a30;fill-opacity:1;fill-rule:evenodd;stroke:none;stroke-width:0.190709;stroke-linecap:round;stroke-linejoin:round;stroke-opacity:1;paint-order:markers stroke fill;stop-color:#000000"
         id="rect1092"
         width="5.6105795"
         height="5.6105795"
         x="86.169029"
         y="-20.335039" />
      <rect
         style="fill:#de0de2;fill-opacity:1;fill-rule:evenodd;stroke:none;stroke-width:0.190709;stroke-linecap:round;stroke-linejoin:round;stroke-opacity:1;paint-order:markers stroke fill;stop-color:#000000"
         id="rect1092-7"
         width="5.6105795"
         height="5.6105795"
         x="103.00077"
         y="-20.335039" />
      <rect
         style="fill:#f2f2f2;fill-opacity:1;fill-rule:evenodd;stroke:none;stroke-width:0.190709;stroke-linecap:round;stroke-linejoin:round;stroke-opacity:1;paint-order:markers stroke fill;stop-color:#000000"
         id="rect1092-5"
         width="5.6105795"
         height="5.6105795"
         x="97.39019"
         y="-20.335039" />
      <rect
         style="fill:#0d6ba6;fill-opacity:1;fill-rule:evenodd;stroke:none;stroke-width:0.190709;stroke-linecap:round;stroke-linejoin:round;stroke-opacity:1;paint-order:markers stroke fill;stop-color:#000000"
         id="rect1092-3"
         width="5.6105795"
         height="5.6105795"
         x="91.77961"
         y="-20.335039" />
      <rect
         style="fill:#f22638;fill-opacity:1;fill-rule:evenodd;stroke:none;stroke-width:0.190709;stroke-linecap:round;stroke-linejoin:round;stroke-opacity:1;paint-order:markers stroke fill;stop-color:#000000"
         id="rect1092-6"
         width="5.6105795"
         height="5.6105795"
         x="108.61135"
         y="-20.335039" />
      <rect
         style="fill:#de0de2;fill-opacity:1;fill-rule:evenodd;stroke:none;stroke-width:0.190709;stroke-linecap:round;stroke-linejoin:round;stroke-opacity:1;paint-order:markers stroke fill;stop-color:#000000"
         id="rect1145"
         width="16.882284"
         height="4.5091786"
         x="88.291954"
         y="-8.9622431"
         rx="2.2545893"
         ry="2.2545893" />
      <path
         id="polygon1428-4-6"
         style="fill:#ffffff;fill-opacity:1;stroke-width:0.0989832"
         d="m 132.57741,1.6163262 -0.38505,-1.07198797 h -0.80726 l 0.39296,1.07198797 z"
         class="st1"
         sodipodi:nodetypes="ccccc" />
      <path
         id="path1436-0-0"
         style="fill:#ffffff;fill-opacity:1;stroke-width:0.0989831"
         d="m 132.96463,-2.9267779 c -0.681,1.386774 -1.36307,2.77332203 -2.04407,4.1600811 l 0.93074,0.0059 c 0.11361,-0.2315471 0.22743,-0.46330207 0.34106,-0.69486497 h 1.75537 c 0.0903,0.2346619 0.18066,0.46941017 0.27094,0.70397167 h 0.91207 l -1.62242,-4.1751098 z m 0.21174,1.465772 c 0.17248,0.448155 0.34479,0.89671003 0.51728,1.34510703 h -1.17754 c 0.22005,-0.448353 0.43984,-0.89638403 0.66026,-1.34510703 z" />
      <path
         id="polygon1428-4-6-8"
         style="fill:#ffffff;fill-opacity:1;stroke-width:0.0996607"
         d="M 128.23402,-7.8418013 127.82204,-8.85746 h -0.86372 l 0.42044,1.0156587 z"
         class="st1"
         sodipodi:nodetypes="ccccc" />
      <path
         id="path1430-6-9-1"
         style="fill:#ffffff;fill-opacity:1;stroke-width:0.0937819"
         d="m 125.6933,-13.06648 c -1.13194,2.304228 -2.26378,4.607607 -3.39573,6.9118368 -0.46798,-0.91623 -0.93502,-1.8315455 -1.40299,-2.7468734 h -0.94654 l 1.90129,3.9406234 h 0.74721 c 0.68742,-1.402039 1.3747,-2.803971 2.06307,-4.205087 0.094,-0.1916613 0.18814,-0.3834294 0.28215,-0.5750889 h 1.6968 c 0.0807,0.2098027 0.16131,0.4197293 0.24202,0.6294471 h 0.86372 l -1.53631,-3.954858 z m 0.19975,1.387888 c 0.16825,0.437137 0.33653,0.874581 0.50477,1.31196 h -1.14888 c 0.2146,-0.437287 0.42914,-0.874662 0.64411,-1.31196 z" />
      <path
         id="path1434-8-9-1"
         style="fill:#ffffff;fill-opacity:1;stroke-width:0.0937819"
         d="m 119.94814,-13.200911 v 3.9957564 h 0.91798 l -0.0159,-1.1244744 c 0.1041,0.02635 0.50644,-0.0084 0.50644,-0.0084 l 0.91715,1.1337815 h 0.95753 l -1.09441,-1.3532605 c 0,0 0.6743,-0.329197 0.88343,-0.86094 0.14359,-0.3648 0.0338,-0.737107 0.009,-0.814922 -0.18476,-0.578668 -0.82619,-0.976311 -1.59519,-0.957514 -0.49611,-0.0035 -0.99132,-0.0064 -1.4865,-0.0101 z m 0,3.9957564 h -10e-5 l 10e-5,0.00124 z m 1.36256,-3.5608194 c 0.11936,-3.16e-4 0.23883,0.01664 0.34646,0.05093 0.10762,0.03428 0.19482,0.08264 0.25721,0.1425 0.0624,0.05985 0.1,0.131217 0.1,0.207272 a 0.02866461,0.02866461 0 0 1 -0.0297,0.02961 l -1.3416,0.0036 a 0.02866461,0.02866461 0 0 1 -0.0296,-0.02961 c -9.1e-4,-0.07606 0.0348,-0.147024 0.0963,-0.207273 0.0614,-0.06024 0.14829,-0.109459 0.25535,-0.144325 0.10707,-0.03487 0.22631,-0.05248 0.34567,-0.0528 z m -6e-5,0.05681 c -0.11336,3.29e-4 -0.2266,0.01689 -0.32708,0.04962 -0.10051,0.03273 -0.17996,0.07926 -0.23315,0.131417 -0.0444,0.0435 -0.0599,0.09101 -0.0666,0.138758 l 1.26019,-0.0036 c -0.007,-0.04781 -0.0233,-0.09539 -0.0685,-0.138758 -0.0541,-0.05195 -0.13579,-0.09734 -0.23688,-0.129546 -0.10108,-0.0322 -0.2146,-0.04813 -0.32798,-0.0478 z m -0.24008,0.417866 c 0.046,0 0.0763,0.0317 0.10176,0.05557 0.0254,0.02387 0.0454,0.04068 0.063,0.04068 0.0169,0 0.0378,-0.01538 0.063,-0.03886 0.0249,-0.02349 0.0542,-0.05551 0.0999,-0.05551 0.0445,0 0.0741,0.03107 0.0981,0.05369 0.024,0.02261 0.0434,0.03701 0.0591,0.03701 0.0166,0 0.0363,-0.0156 0.061,-0.03886 0.0248,-0.02326 0.0545,-0.05369 0.0999,-0.05369 0.045,0 0.0753,0.03068 0.0999,0.05369 0.0246,0.023 0.0429,0.037 0.0591,0.037 6e-4,0 0.0194,-0.0067 0.0334,-0.01665 0.0137,-0.01 0.024,-0.02035 0.024,-0.02035 a 0.02866174,0.02866174 0 0 1 0.0408,0.0019 0.02866174,0.02866174 0 0 1 -0.002,0.04068 c 0,0 -0.0124,0.01161 -0.0297,0.02403 -0.0174,0.01244 -0.0373,0.02778 -0.0666,0.02778 -0.045,0 -0.0753,-0.03068 -0.10001,-0.05369 -0.0246,-0.023 -0.0429,-0.037 -0.0591,-0.037 -0.0166,0 -0.0363,0.01561 -0.061,0.03886 -0.0247,0.02326 -0.0546,0.05366 -0.0999,0.05366 -0.0446,0 -0.0741,-0.03103 -0.0981,-0.05366 -0.024,-0.02261 -0.0435,-0.03701 -0.0591,-0.03701 -0.0169,0 -0.036,0.01539 -0.061,0.03886 -0.0249,0.02348 -0.0561,0.05551 -0.10181,0.05551 -0.046,0 -0.0763,-0.03167 -0.10176,-0.05551 -0.0255,-0.02387 -0.0455,-0.04074 -0.063,-0.04074 -0.0168,0 -0.0362,0.01549 -0.061,0.03886 -0.0248,0.02337 -0.0562,0.0555 -0.10177,0.0555 -0.043,0 -0.0714,-0.03026 -0.0944,-0.05182 -0.0229,-0.02156 -0.0394,-0.03521 -0.0537,-0.03517 -0.002,10e-6 -0.0221,0.0076 -0.037,0.01853 -0.0147,0.01089 -0.0258,0.02222 -0.0258,0.02222 a 0.02866174,0.02866174 0 0 1 -0.0407,0 0.02866174,0.02866174 0 0 1 0.002,-0.04074 c 0,0 0.0132,-0.01427 0.0315,-0.02772 0.0183,-0.01348 0.04,-0.02942 0.0703,-0.02961 0.043,-1.53e-4 0.0714,0.03025 0.0944,0.05182 0.0229,0.02157 0.0393,0.03512 0.0537,0.03512 0.0168,0 0.0379,-0.01544 0.063,-0.03882 0.0248,-0.02337 0.0544,-0.05557 0.0999,-0.05557 z m 0.84269,0.201239 c 0.0365,0 0.0659,0.02941 0.0659,0.06585 0,0.03645 -0.0177,0.05966 -0.053,0.06828 0,0 -0.0646,-0.0025 -0.0812,0.01408 -0.0117,0.01196 -0.0136,0.04331 -0.014,0.05477 h 0.13909 c 0.0686,0 0.12374,0.05519 0.12374,0.123746 0,0.06855 -0.0552,0.123747 -0.12374,0.123747 h -1.24846 c -0.0686,0 -0.12375,-0.05519 -0.12375,-0.123747 0,-0.06855 0.0552,-0.123746 0.12375,-0.123746 h 0.10935 c 0.003,-0.01968 0.004,-0.04641 -0.013,-0.05851 -0.0276,-0.01997 -0.10925,-0.01278 -0.10925,-0.01278 -0.0362,-0.0046 -0.0555,-0.02925 -0.0555,-0.0657 0,-0.03645 0.0293,-0.06585 0.0658,-0.06585 z m -0.28041,0.130949 c -0.0192,-5.42e-4 -0.0383,0.0046 -0.0511,0.01603 -0.0157,0.01427 -0.0216,0.03405 -0.0226,0.05598 h 0.14124 c -9.1e-4,-0.02632 3e-5,-0.04282 -0.0151,-0.05477 -0.0136,-0.01064 -0.0329,-0.01671 -0.0523,-0.01725 z m -0.4623,0.0051 c -0.0789,-9e-5 -0.15651,0.0015 -0.21232,0.0045 -0.019,10e-4 -0.017,0.03751 -0.0136,0.06235 h 0.46894 c -3.5e-4,-0.03304 -0.005,-0.05992 -0.0236,-0.06109 -0.0606,-0.0038 -0.14055,-0.0056 -0.21938,-0.0057 z m -0.52969,0.384381 a 0.02866461,0.02866461 0 0 1 0.002,0 l 1.34161,0.0036 a 0.02866461,0.02866461 0 0 1 0.0297,0.02961 c 0,0.152371 -0.13954,0.335362 -0.35903,0.405285 -0.2162,0.06889 -0.47716,0.05455 -0.69024,-0.01483 -0.21741,-0.07082 -0.35421,-0.243776 -0.35159,-0.395978 a 0.02866461,0.02866461 0 0 1 0.0274,-0.02778 z m 0.056,0.0574 c 0.0158,0.111579 0.10539,0.251774 0.28682,0.310863 0.20206,0.06578 0.45203,0.07892 0.65326,0.01483 0.18209,-0.05801 0.2766,-0.208671 0.2942,-0.321993 z" />
      <path
         id="path1436-0-0-0"
         style="fill:#ffffff;fill-opacity:1;stroke-width:0.0937819"
         d="m 125.70624,-8.9071246 c -0.64521,1.3139043 -1.29144,2.6275944 -1.93666,3.9414844 l 0.88184,0.0056 c 0.10764,-0.21938 0.21548,-0.438957 0.32314,-0.658352 h 1.66313 c 0.0855,0.222331 0.17117,0.444744 0.2567,0.66698 h 0.86415 l -1.53718,-3.955723 z m 0.20062,1.3887507 c 0.16342,0.4246057 0.32668,0.8495917 0.4901,1.2744277 h -1.11567 c 0.20849,-0.424794 0.41673,-0.849283 0.62557,-1.2744277 z" />
    </g>
  </g>
</svg>
