<?xml version="1.0" encoding="UTF-8" standalone="no"?>
<svg
   xmlns:dc="http://purl.org/dc/elements/1.1/"
   xmlns:cc="http://creativecommons.org/ns#"
   xmlns:rdf="http://www.w3.org/1999/02/22-rdf-syntax-ns#"
   xmlns:svg="http://www.w3.org/2000/svg"
   xmlns="http://www.w3.org/2000/svg"
   xmlns:xlink="http://www.w3.org/1999/xlink"
   xmlns:sodipodi="http://sodipodi.sourceforge.net/DTD/sodipodi-0.dtd"
   xmlns:inkscape="http://www.inkscape.org/namespaces/inkscape"
   width="500px"
   height="500px"
   viewBox="0 0 500 500"
   version="1.1"
   id="SVGRoot"
   sodipodi:docname="panino.svg"
   inkscape:version="1.0.1 (3bc2e813f5, 2020-09-07)">
  <defs
     id="defs1272">
    <linearGradient
       inkscape:collect="always"
       xlink:href="#linearGradient936"
       id="linearGradient1004"
       x1="-35.197506"
       y1="176.04453"
       x2="-10.990473"
       y2="160.14198"
       gradientUnits="userSpaceOnUse"
       gradientTransform="matrix(5.6459851,-0.17376692,0.3554995,6.4356622,437.00948,-669.60287)" />
    <linearGradient
       inkscape:collect="always"
       id="linearGradient936">
      <stop
         style="stop-color:#aa631d;stop-opacity:1"
         offset="0"
         id="stop932" />
      <stop
         style="stop-color:#d27b24;stop-opacity:1"
         offset="1"
         id="stop934" />
    </linearGradient>
    <linearGradient
       inkscape:collect="always"
       xlink:href="#linearGradient1010"
       id="linearGradient1020"
       x1="-29.436787"
       y1="160.15594"
       x2="-28.866856"
       y2="166.36996"
       gradientUnits="userSpaceOnUse"
       gradientTransform="matrix(5.6360525,-0.2469012,0.2469012,5.6360525,451.77146,-560.91035)" />
    <linearGradient
       inkscape:collect="always"
       id="linearGradient1010">
      <stop
         style="stop-color:#851515;stop-opacity:1"
         offset="0"
         id="stop1006" />
      <stop
         style="stop-color:#e03939;stop-opacity:1"
         offset="1"
         id="stop1008" />
    </linearGradient>
    <linearGradient
       inkscape:collect="always"
       xlink:href="#linearGradient1026"
       id="linearGradient1036"
       x1="-28.701796"
       y1="157.6837"
       x2="-28.866856"
       y2="166.36996"
       gradientUnits="userSpaceOnUse"
       gradientTransform="matrix(5.6360525,-0.2469012,0.2469012,5.6360525,451.77146,-560.91035)" />
    <linearGradient
       inkscape:collect="always"
       id="linearGradient1026">
      <stop
         style="stop-color:#010000;stop-opacity:1"
         offset="0"
         id="stop1022" />
      <stop
         style="stop-color:#610000;stop-opacity:1"
         offset="1"
         id="stop1024" />
    </linearGradient>
    <linearGradient
       inkscape:collect="always"
       xlink:href="#linearGradient1010"
       id="linearGradient1012"
       x1="-49.3396"
       y1="159.06984"
       x2="-49.254864"
       y2="164.74933"
       gradientUnits="userSpaceOnUse"
       gradientTransform="matrix(5.6360525,-0.2469012,0.2469012,5.6360525,451.77146,-560.91035)" />
    <linearGradient
       inkscape:collect="always"
       xlink:href="#linearGradient1026"
       id="linearGradient1028"
       x1="-53.415459"
       y1="156.5976"
       x2="-52.862999"
       y2="166.41975"
       gradientUnits="userSpaceOnUse"
       gradientTransform="matrix(5.6360525,-0.2469012,0.2469012,5.6360525,451.77146,-560.91035)" />
    <linearGradient
       inkscape:collect="always"
       xlink:href="#linearGradient994"
       id="linearGradient996"
       x1="-43.030392"
       y1="147.93367"
       x2="-43.698563"
       y2="161.69804"
       gradientUnits="userSpaceOnUse"
       gradientTransform="matrix(5.641458,-2.3050529e-8,2.3050529e-8,5.641458,475.88711,-540.60097)" />
    <linearGradient
       inkscape:collect="always"
       id="linearGradient994">
      <stop
         style="stop-color:#391913;stop-opacity:1"
         offset="0"
         id="stop995" />
      <stop
         style="stop-color:#923f30;stop-opacity:1"
         offset="1"
         id="stop992" />
    </linearGradient>
    <linearGradient
       inkscape:collect="always"
       xlink:href="#linearGradient944"
       id="linearGradient946"
       x1="-57.434486"
       y1="140.68106"
       x2="-57.136375"
       y2="145.02779"
       gradientUnits="userSpaceOnUse"
       gradientTransform="matrix(5.6360525,-0.2469012,0.2469012,5.6360525,451.77146,-560.91035)" />
    <linearGradient
       inkscape:collect="always"
       id="linearGradient944">
      <stop
         style="stop-color:#b420b3;stop-opacity:1"
         offset="0"
         id="stop940" />
      <stop
         style="stop-color:#efa0ed;stop-opacity:1"
         offset="1"
         id="stop942" />
    </linearGradient>
    <linearGradient
       inkscape:collect="always"
       xlink:href="#linearGradient960"
       id="linearGradient962"
       x1="-58.00145"
       y1="139.3109"
       x2="-58.128559"
       y2="144.93329"
       gradientUnits="userSpaceOnUse"
       gradientTransform="matrix(5.6360525,-0.2469012,0.2469012,5.6360525,451.77146,-560.91035)" />
    <linearGradient
       inkscape:collect="always"
       id="linearGradient960">
      <stop
         style="stop-color:#000000;stop-opacity:1"
         offset="0"
         id="stop956" />
      <stop
         style="stop-color:#52007f;stop-opacity:1"
         offset="1"
         id="stop958" />
    </linearGradient>
    <linearGradient
       inkscape:collect="always"
       xlink:href="#linearGradient944"
       id="linearGradient954"
       x1="-28.10952"
       y1="140.35841"
       x2="-28.974068"
       y2="147.93814"
       gradientUnits="userSpaceOnUse"
       gradientTransform="matrix(5.6360525,-0.2469012,0.2469012,5.6360525,451.77146,-560.91035)" />
    <linearGradient
       inkscape:collect="always"
       xlink:href="#linearGradient936"
       id="linearGradient938"
       x1="-68.663712"
       y1="133.66888"
       x2="-6.9490051"
       y2="122.89655"
       gradientUnits="userSpaceOnUse"
       gradientTransform="matrix(5.6360525,-0.2469012,0.2469012,5.6360525,451.77146,-560.91035)" />
    <linearGradient
       inkscape:collect="always"
       xlink:href="#linearGradient1045"
       id="linearGradient1047"
       x1="-59.412731"
       y1="113.08903"
       x2="-57.812897"
       y2="113.08903"
       gradientUnits="userSpaceOnUse"
       gradientTransform="matrix(5.6360525,-0.2469012,0.2469012,5.6360525,451.77146,-560.91035)" />
    <linearGradient
       inkscape:collect="always"
       id="linearGradient1045">
      <stop
         style="stop-color:#d07a26;stop-opacity:1"
         offset="0"
         id="stop1041" />
      <stop
         style="stop-color:#e09953;stop-opacity:1"
         offset="1"
         id="stop1043" />
    </linearGradient>
    <linearGradient
       inkscape:collect="always"
       xlink:href="#linearGradient1045"
       id="linearGradient1047-4"
       x1="-59.412731"
       y1="113.08903"
       x2="-57.812897"
       y2="113.08903"
       gradientUnits="userSpaceOnUse"
       gradientTransform="matrix(5.6360525,-0.2469012,0.2469012,5.6360525,499.48419,-571.42315)" />
    <linearGradient
       inkscape:collect="always"
       xlink:href="#linearGradient1045"
       id="linearGradient1047-5"
       x1="-59.412731"
       y1="113.08903"
       x2="-57.812897"
       y2="113.08903"
       gradientUnits="userSpaceOnUse"
       gradientTransform="matrix(5.6360525,-0.2469012,0.2469012,5.6360525,473.96329,-581.51065)" />
    <linearGradient
       inkscape:collect="always"
       xlink:href="#linearGradient1045"
       id="linearGradient1047-9"
       x1="-59.412731"
       y1="113.08903"
       x2="-57.812897"
       y2="113.08903"
       gradientUnits="userSpaceOnUse"
       gradientTransform="matrix(5.6360525,-0.2469012,0.2469012,5.6360525,563.63237,-550.48832)" />
    <linearGradient
       inkscape:collect="always"
       xlink:href="#linearGradient1045"
       id="linearGradient1047-0"
       x1="-59.412731"
       y1="113.08903"
       x2="-57.812897"
       y2="113.08903"
       gradientUnits="userSpaceOnUse"
       gradientTransform="matrix(5.6360525,-0.2469012,0.2469012,5.6360525,527.13781,-518.74143)" />
    <linearGradient
       inkscape:collect="always"
       xlink:href="#linearGradient1045"
       id="linearGradient1047-1"
       x1="-59.412731"
       y1="113.08903"
       x2="-57.812897"
       y2="113.08903"
       gradientUnits="userSpaceOnUse"
       gradientTransform="matrix(5.6360525,-0.2469012,0.2469012,5.6360525,537.81421,-549.09049)" />
    <linearGradient
       inkscape:collect="always"
       xlink:href="#linearGradient1045"
       id="linearGradient1047-8"
       x1="-59.412731"
       y1="113.08903"
       x2="-57.812897"
       y2="113.08903"
       gradientUnits="userSpaceOnUse"
       gradientTransform="matrix(5.6360525,-0.2469012,0.2469012,5.6360525,488.63324,-508.51712)" />
    <linearGradient
       inkscape:collect="always"
       xlink:href="#linearGradient1045"
       id="linearGradient1047-85"
       x1="-59.412731"
       y1="113.08903"
       x2="-57.812897"
       y2="113.08903"
       gradientUnits="userSpaceOnUse"
       gradientTransform="matrix(5.6360525,-0.2469012,0.2469012,5.6360525,437.85775,-528.70379)" />
    <linearGradient
       inkscape:collect="always"
       xlink:href="#linearGradient1045"
       id="linearGradient1047-55"
       x1="-59.412731"
       y1="113.08903"
       x2="-57.812897"
       y2="113.08903"
       gradientUnits="userSpaceOnUse"
       gradientTransform="matrix(5.6360525,-0.2469012,0.2469012,5.6360525,472.73527,-548.64071)" />
    <linearGradient
       inkscape:collect="always"
       xlink:href="#linearGradient1045"
       id="linearGradient1047-55-0"
       x1="-59.412731"
       y1="113.08903"
       x2="-57.812897"
       y2="113.08903"
       gradientUnits="userSpaceOnUse"
       gradientTransform="matrix(5.6360525,-0.2469012,0.2469012,5.6360525,522.53246,-581.23717)" />
    <linearGradient
       inkscape:collect="always"
       xlink:href="#linearGradient1045"
       id="linearGradient1047-55-8"
       x1="-59.412731"
       y1="113.08903"
       x2="-57.812897"
       y2="113.08903"
       gradientUnits="userSpaceOnUse"
       gradientTransform="matrix(5.6360525,-0.2469012,0.2469012,5.6360525,544.9501,-501.9131)" />
    <linearGradient
       inkscape:collect="always"
       xlink:href="#linearGradient1045"
       id="linearGradient1047-55-04"
       x1="-59.412731"
       y1="113.08903"
       x2="-57.812897"
       y2="113.08903"
       gradientUnits="userSpaceOnUse"
       gradientTransform="matrix(5.6360525,-0.2469012,0.2469012,5.6360525,443.22294,-479.31444)" />
    <linearGradient
       inkscape:collect="always"
       xlink:href="#linearGradient1045"
       id="linearGradient1047-55-5"
       x1="-59.412731"
       y1="113.08903"
       x2="-57.812897"
       y2="113.08903"
       gradientUnits="userSpaceOnUse"
       gradientTransform="matrix(5.6360525,-0.2469012,0.2469012,5.6360525,408.69093,-500.21271)" />
    <linearGradient
       inkscape:collect="always"
       xlink:href="#linearGradient1045"
       id="linearGradient1047-55-4"
       x1="-59.412731"
       y1="113.08903"
       x2="-57.812897"
       y2="113.08903"
       gradientUnits="userSpaceOnUse"
       gradientTransform="matrix(5.6360525,-0.2469012,0.2469012,5.6360525,409.72265,-531.47322)" />
    <linearGradient
       inkscape:collect="always"
       xlink:href="#linearGradient1045"
       id="linearGradient1047-55-3"
       x1="-59.412731"
       y1="113.08903"
       x2="-57.812897"
       y2="113.08903"
       gradientUnits="userSpaceOnUse"
       gradientTransform="matrix(5.6360525,-0.2469012,0.2469012,5.6360525,426.57233,-554.88917)" />
    <linearGradient
       inkscape:collect="always"
       xlink:href="#linearGradient1045"
       id="linearGradient1047-55-34"
       x1="-59.412731"
       y1="113.08903"
       x2="-57.812897"
       y2="113.08903"
       gradientUnits="userSpaceOnUse"
       gradientTransform="matrix(5.6360525,-0.2469012,0.2469012,5.6360525,495.88806,-592.60943)" />
    <linearGradient
       inkscape:collect="always"
       xlink:href="#linearGradient1045"
       id="linearGradient1047-55-2"
       x1="-59.412731"
       y1="113.08903"
       x2="-57.812897"
       y2="113.08903"
       gradientUnits="userSpaceOnUse"
       gradientTransform="matrix(5.6360525,-0.2469012,0.2469012,5.6360525,551.52273,-583.30756)" />
    <linearGradient
       inkscape:collect="always"
       xlink:href="#linearGradient1045"
       id="linearGradient1047-55-58"
       x1="-59.412731"
       y1="113.08903"
       x2="-57.812897"
       y2="113.08903"
       gradientUnits="userSpaceOnUse"
       gradientTransform="matrix(5.6360525,-0.2469012,0.2469012,5.6360525,591.35309,-575.44771)" />
    <linearGradient
       inkscape:collect="always"
       xlink:href="#linearGradient1045"
       id="linearGradient1047-55-1"
       x1="-59.412731"
       y1="113.08903"
       x2="-57.812897"
       y2="113.08903"
       gradientUnits="userSpaceOnUse"
       gradientTransform="matrix(5.6360525,-0.2469012,0.2469012,5.6360525,602.42696,-523.64045)" />
    <linearGradient
       inkscape:collect="always"
       xlink:href="#linearGradient1045"
       id="linearGradient1047-55-53"
       x1="-59.412731"
       y1="113.08903"
       x2="-57.812897"
       y2="113.08903"
       gradientUnits="userSpaceOnUse"
       gradientTransform="matrix(5.6360525,-0.2469012,0.2469012,5.6360525,499.09765,-549.79561)" />
    <linearGradient
       inkscape:collect="always"
       xlink:href="#linearGradient1045"
       id="linearGradient1047-55-20"
       x1="-59.412731"
       y1="113.08903"
       x2="-57.812897"
       y2="113.08903"
       gradientUnits="userSpaceOnUse"
       gradientTransform="matrix(5.6360525,-0.2469012,0.2469012,5.6360525,583.28645,-601.2405)" />
    <linearGradient
       inkscape:collect="always"
       xlink:href="#linearGradient1045"
       id="linearGradient1047-55-7"
       x1="-59.412731"
       y1="113.08903"
       x2="-57.812897"
       y2="113.08903"
       gradientUnits="userSpaceOnUse"
       gradientTransform="matrix(5.6360525,-0.2469012,0.2469012,5.6360525,635.37971,-587.51472)" />
    <linearGradient
       inkscape:collect="always"
       xlink:href="#linearGradient1045"
       id="linearGradient1047-55-85"
       x1="-59.412731"
       y1="113.08903"
       x2="-57.812897"
       y2="113.08903"
       gradientUnits="userSpaceOnUse"
       gradientTransform="matrix(5.6360525,-0.2469012,0.2469012,5.6360525,651.22138,-542.58628)" />
    <linearGradient
       inkscape:collect="always"
       xlink:href="#linearGradient1045"
       id="linearGradient1047-55-39"
       x1="-59.412731"
       y1="113.08903"
       x2="-57.812897"
       y2="113.08903"
       gradientUnits="userSpaceOnUse"
       gradientTransform="matrix(5.6360525,-0.2469012,0.2469012,5.6360525,607.46467,-554.80968)" />
    <linearGradient
       inkscape:collect="always"
       xlink:href="#linearGradient1045"
       id="linearGradient1047-55-33"
       x1="-59.412731"
       y1="113.08903"
       x2="-57.812897"
       y2="113.08903"
       gradientUnits="userSpaceOnUse"
       gradientTransform="matrix(5.6360525,-0.2469012,0.2469012,5.6360525,619.46011,-481.96582)" />
    <linearGradient
       inkscape:collect="always"
       xlink:href="#linearGradient1045"
       id="linearGradient1047-55-44"
       x1="-59.412731"
       y1="113.08903"
       x2="-57.812897"
       y2="113.08903"
       gradientUnits="userSpaceOnUse"
       gradientTransform="matrix(5.6360525,-0.2469012,0.2469012,5.6360525,672.61922,-571.8042)" />
    <linearGradient
       inkscape:collect="always"
       xlink:href="#linearGradient1045"
       id="linearGradient1047-55-41"
       x1="-59.412731"
       y1="113.08903"
       x2="-57.812897"
       y2="113.08903"
       gradientUnits="userSpaceOnUse"
       gradientTransform="matrix(5.6360525,-0.2469012,0.2469012,5.6360525,642.71547,-566.22543)" />
    <linearGradient
       inkscape:collect="always"
       xlink:href="#linearGradient1045"
       id="linearGradient1047-55-77"
       x1="-59.412731"
       y1="113.08903"
       x2="-57.812897"
       y2="113.08903"
       gradientUnits="userSpaceOnUse"
       gradientTransform="matrix(5.6360525,-0.2469012,0.2469012,5.6360525,679.70484,-501.4132)" />
    <linearGradient
       inkscape:collect="always"
       xlink:href="#linearGradient1045"
       id="linearGradient1047-55-49"
       x1="-59.412731"
       y1="113.08903"
       x2="-57.812897"
       y2="113.08903"
       gradientUnits="userSpaceOnUse"
       gradientTransform="matrix(5.6360525,-0.2469012,0.2469012,5.6360525,713.27783,-545.038)" />
    <linearGradient
       inkscape:collect="always"
       xlink:href="#linearGradient1045"
       id="linearGradient1047-55-9"
       x1="-59.412731"
       y1="113.08903"
       x2="-57.812897"
       y2="113.08903"
       gradientUnits="userSpaceOnUse"
       gradientTransform="matrix(5.6360525,-0.2469012,0.2469012,5.6360525,648.34535,-486.43276)" />
    <linearGradient
       inkscape:collect="always"
       xlink:href="#linearGradient1045"
       id="linearGradient1047-55-35"
       x1="-59.412731"
       y1="113.08903"
       x2="-57.812897"
       y2="113.08903"
       gradientUnits="userSpaceOnUse"
       gradientTransform="matrix(5.6360525,-0.2469012,0.2469012,5.6360525,541.69906,-600.48584)" />
  </defs>
  <sodipodi:namedview
     id="base"
     pagecolor="#ffffff"
     bordercolor="#666666"
     borderopacity="1.0"
     inkscape:pageopacity="0.0"
     inkscape:pageshadow="2"
     inkscape:zoom="0.98994949"
     inkscape:cx="312.38894"
     inkscape:cy="347.74341"
     inkscape:document-units="px"
     inkscape:current-layer="layer1"
     inkscape:document-rotation="0"
     showgrid="false"
     inkscape:window-width="1631"
     inkscape:window-height="1080"
     inkscape:window-x="224"
     inkscape:window-y="1350"
     inkscape:window-maximized="0" />
  <metadata
     id="metadata1275">
    <rdf:RDF>
      <cc:Work
         rdf:about="">
        <dc:format>image/svg+xml</dc:format>
        <dc:type
           rdf:resource="http://purl.org/dc/dcmitype/StillImage" />
        <dc:title></dc:title>
      </cc:Work>
    </rdf:RDF>
  </metadata>
  <g
     inkscape:label="Livello 1"
     inkscape:groupmode="layer"
     id="layer1">
    <path
       style="fill:none;stroke:#98d09a;stroke-width:1.49263px;stroke-linecap:round;stroke-linejoin:miter;stroke-opacity:1"
       d="m 441.06512,223.94399 c 0,0 -46.92476,0.72166 -55.60725,3.50321"
       id="path980" />
    <path
       id="path926"
       style="fill:url(#linearGradient1004);fill-opacity:1;fill-rule:evenodd;stroke:none;stroke-width:15.1328;stroke-linejoin:round;stroke-miterlimit:4;stroke-dasharray:none;stroke-dashoffset:77.8666;stroke-opacity:1;paint-order:fill markers stroke;stop-color:#000000"
       d="M 431.29071,352.11692 C 434.40471,375.34419 402.147,465.31069 273.08442,473.08985 229.0702,475.74278 99.971547,460.69231 81.094669,362.89495 66.452892,287.03877 148.54875,242.5655 245.25268,239.58924 c 96.70395,-2.97628 175.77241,35.95645 186.03803,112.52768 z"
       sodipodi:nodetypes="sssss" />
    <path
       id="path929"
       style="opacity:0.594655;fill:#5e3710;fill-opacity:1;fill-rule:evenodd;stroke:none;stroke-width:15.5164;stroke-linejoin:round;stroke-miterlimit:4;stroke-dasharray:none;stroke-dashoffset:77.8666;stroke-opacity:1;paint-order:fill markers stroke;stop-color:#000000"
       d="m 398.6791,314.43021 c 2.20635,50.36432 -54.69119,88.99134 -147.88578,93.07397 -93.19449,4.08261 -129.32265,-27.80122 -131.52897,-78.16555 -2.2063,-50.36434 35.94137,-94.18486 129.13585,-98.26747 93.19451,-4.08261 148.07256,32.9947 150.2789,83.35905 z"
       sodipodi:nodetypes="sssss" />
    <path
       id="path874-3"
       style="fill:url(#linearGradient1020);fill-opacity:1;fill-rule:evenodd;stroke:url(#linearGradient1036);stroke-width:13.3928;stroke-linejoin:round;stroke-miterlimit:4;stroke-dasharray:none;stroke-dashoffset:77.8666;stroke-opacity:1;paint-order:fill markers stroke;stop-color:#000000"
       d="m 378.46647,347.8125 a 38.448645,59.180752 87.491621 0 1 -57.44132,41.00189 38.448645,59.180752 87.491621 0 1 -60.80679,-35.82174 38.448645,59.180752 87.491621 0 1 57.44135,-41.00186 38.448645,59.180752 87.491621 0 1 60.80676,35.82171 z" />
    <path
       id="path874-5-6"
       style="fill:url(#linearGradient1012);fill-opacity:1;fill-rule:evenodd;stroke:url(#linearGradient1028);stroke-width:17.8657;stroke-linejoin:round;stroke-miterlimit:4;stroke-dasharray:none;stroke-dashoffset:77.8666;stroke-opacity:1;paint-order:fill markers stroke;stop-color:#000000"
       d="m 288.82162,334.66447 a 51.290018,78.946397 87.491621 0 1 -76.626,54.69611 51.290018,78.946397 87.491621 0 1 -81.11547,-47.78585 51.290018,78.946397 87.491621 0 1 76.626,-54.696 51.290018,78.946397 87.491621 0 1 81.11547,47.78574 z" />
    <rect
       style="fill:url(#linearGradient996);fill-opacity:1;fill-rule:evenodd;stroke:none;stroke-width:13.3928;stroke-linejoin:round;stroke-miterlimit:4;stroke-dasharray:none;stroke-dashoffset:77.8666;stroke-opacity:1;paint-order:fill markers stroke;stop-color:#000000"
       id="rect894"
       width="350.56116"
       height="128.16216"
       x="66.522202"
       y="241.18799"
       rx="20.204542"
       ry="20.204542"
       transform="rotate(-2.5083792)" />
    <path
       style="fill:#00c20b;fill-opacity:1;stroke:none;stroke-width:1.49263px;stroke-linecap:butt;stroke-linejoin:miter;stroke-opacity:1"
       d="m 138.43866,210.45241 c -15.31527,-3.08594 -29.74319,-26.64351 -43.068573,-18.48802 -5.822779,3.56378 -2.159162,9.91949 -7.690975,13.92006 -9.791089,7.08096 -34.348723,13.60662 -42.793195,22.24931 -6.134129,6.27822 23.728075,-7.80931 21.154855,0.58252 -3.256566,10.6203 -49.957547,16.08934 -47.867361,26.99932 3.038351,15.85937 38.156754,1.20027 45.949191,15.34332 7.329584,13.30297 -22.428166,34.36736 -10.890233,44.24497 13.830601,11.84027 32.20857,-22.01312 50.390831,-21.07299 15.53743,0.80344 25.42578,21.79704 40.97402,22.3528 12.73147,0.4551 22.09682,-17.13882 34.77219,-15.86101 18.86039,1.90134 27.45311,37.42598 45.9879,33.45246 11.04359,-2.3675 6.2847,-25.34782 16.82242,-29.41242 22.03564,-8.49954 44.82181,28.98538 67.36798,21.95114 9.36813,-2.92281 8.42595,-20.6467 17.83952,-23.42003 17.72691,-5.22254 35.91228,27.68803 52.13956,18.8452 10.76045,-5.86384 -2.35798,-29.67624 8.24047,-35.82802 18.42137,-10.69251 44.08205,31.15416 61.17767,18.44924 9.28688,-6.90171 -6.03726,-24.83426 -0.0114,-34.71198 7.20279,-11.80691 33.56556,-5.55003 36.89976,-18.97266 2.94121,-11.84047 -1.0046,-16.3825 -12.90861,-19.05459 -8.55383,-1.92005 -21.99195,-0.94557 -28.9505,-6.27784 -6.05675,-4.64124 14.41261,-1.37358 9.49428,-7.20755 -3.72895,-4.4232 -17.08035,-5.31035 -22.85915,-5.03555 -104.74077,4.98159 -189.37733,17.6642 -292.17064,-3.04768 z"
       id="path892"
       sodipodi:nodetypes="sssssssssssssssssssssssss" />
    <path
       style="fill:none;stroke:#98d09a;stroke-width:1.49263px;stroke-linecap:round;stroke-linejoin:miter;stroke-opacity:1"
       d="m 309.5477,315.61431 c 0,0 -6.58358,-22.38941 -16.45191,-34.49659"
       id="path968" />
    <path
       style="fill:none;stroke:#98d09a;stroke-width:1.49263px;stroke-linecap:round;stroke-linejoin:miter;stroke-opacity:1"
       d="m 145.06013,312.41498 c 0,0 -5.32416,-30.18175 1.35227,-42.21326"
       id="path974" />
    <path
       id="path874"
       style="fill:url(#linearGradient946);fill-opacity:1;fill-rule:evenodd;stroke:url(#linearGradient962);stroke-width:13.3928;stroke-linejoin:round;stroke-miterlimit:4;stroke-dasharray:none;stroke-dashoffset:77.8666;stroke-opacity:1;paint-order:fill markers stroke;stop-color:#000000"
       d="m 220.21587,234.03621 a 38.448645,59.180752 87.491621 0 1 -57.44131,41.00187 38.448645,59.180752 87.491621 0 1 -60.80681,-35.82174 38.448645,59.180752 87.491621 0 1 57.44133,-41.00189 38.448645,59.180752 87.491621 0 1 60.80679,35.82176 z" />
    <path
       style="fill:none;stroke:#98d09a;stroke-width:1.49263px;stroke-linecap:round;stroke-linejoin:miter;stroke-opacity:1"
       d="m 441.48192,294.36034 c 0,0 -19.79696,-31.68209 -52.82053,-42.5081"
       id="path978" />
    <path
       style="fill:none;stroke:#98d09a;stroke-width:1.49263px;stroke-linecap:round;stroke-linejoin:miter;stroke-opacity:1"
       d="m 375.50719,316.99359 c 0,0 -26.20915,-25.79847 -27.95091,-41.19639"
       id="path976" />
    <path
       id="path874-5"
       style="fill:url(#linearGradient954);fill-opacity:1;fill-rule:evenodd;stroke:#52007f;stroke-width:17.866;stroke-linejoin:round;stroke-miterlimit:4;stroke-dasharray:none;stroke-dashoffset:77.8666;stroke-opacity:1;paint-order:fill markers stroke;stop-color:#000000"
       d="m 401.6242,225.33443 a 51.290018,78.946397 87.491621 0 1 -76.62604,54.6961 51.290018,78.946397 87.491621 0 1 -81.11549,-47.78586 51.290018,78.946397 87.491621 0 1 76.62601,-54.69597 51.290018,78.946397 87.491621 0 1 81.11552,47.78573 z" />
    <path
       style="fill:none;stroke:#98d09a;stroke-width:1.49498;stroke-linecap:round;stroke-linejoin:miter;stroke-miterlimit:4;stroke-dasharray:none;stroke-opacity:1"
       d="m 213.48236,321.48954 c 0,0 -0.45398,-36.2018 9.84013,-50.99052"
       id="path964" />
    <path
       id="path871"
       style="fill:url(#linearGradient938);fill-opacity:1;fill-rule:evenodd;stroke:none;stroke-width:4.71971;stroke-linejoin:round;stroke-dashoffset:77.8666;paint-order:fill markers stroke;stop-color:#000000"
       d="m 444.77622,175.14862 c 4.10003,93.59231 -81.62916,64.7 -185.62061,69.2556 C 155.16417,248.95983 72.289918,285.23822 68.189885,191.64591 64.089864,98.053623 145.9257,38.071516 249.91712,33.515909 353.90854,28.9603 440.67617,81.556304 444.77622,175.14862 Z"
       sodipodi:nodetypes="sssss" />
    <path
       style="fill:none;stroke:#98d09a;stroke-width:1.49263px;stroke-linecap:round;stroke-linejoin:miter;stroke-opacity:1"
       d="m 237.51549,260.8748 c 0,0 17.20407,33.39636 33.65954,43.61424"
       id="path966" />
    <path
       style="fill:none;stroke:#98d09a;stroke-width:1.49263px;stroke-linecap:round;stroke-linejoin:miter;stroke-opacity:1"
       d="m 61.671371,296.8586 c 0,0 25.701059,-40.61195 35.749948,-42.65297"
       id="path970" />
    <path
       style="fill:none;stroke:#98d09a;stroke-width:1.49263px;stroke-linecap:round;stroke-linejoin:miter;stroke-opacity:1"
       d="m 34.682599,259.35526 c 0,0 37.703713,-16.32558 49.431936,-16.57258"
       id="path972" />
    <path
       id="path1038"
       style="opacity:0.594655;fill:url(#linearGradient1047);fill-opacity:1;fill-rule:evenodd;stroke:#f3d7bb;stroke-width:0.372757;stroke-linecap:round;stroke-linejoin:round;stroke-miterlimit:4;stroke-dasharray:none;stroke-dashoffset:77.8666;stroke-opacity:1;paint-order:fill markers stroke;stop-color:#000000"
       d="m 153.23714,93.1488 c -1.33717,2.980486 -4.0772,4.653645 -6.12001,3.737188 -2.04283,-0.916526 -2.61483,-4.075642 -1.27776,-7.056117 1.33721,-2.980497 6.47595,-5.180005 6.47595,-5.180005 0,0 2.25893,5.518459 0.92192,8.498923 z"
       sodipodi:nodetypes="ssscs" />
    <path
       id="path1038-3"
       style="opacity:0.594655;fill:url(#linearGradient1047-4);fill-opacity:1;fill-rule:evenodd;stroke:#f3d7bb;stroke-width:0.372757;stroke-linecap:round;stroke-linejoin:round;stroke-miterlimit:4;stroke-dasharray:none;stroke-dashoffset:77.8666;stroke-opacity:1;paint-order:fill markers stroke;stop-color:#000000"
       d="m 200.9499,82.635971 c -1.33722,2.980486 -4.07722,4.653702 -6.12002,3.737221 -2.04284,-0.916526 -2.61485,-4.075675 -1.27777,-7.05615 1.33714,-2.980487 6.47596,-5.179974 6.47596,-5.179974 0,0 2.25884,5.518428 0.9219,8.498914 z"
       sodipodi:nodetypes="ssscs" />
    <path
       id="path1038-5"
       style="opacity:0.594655;fill:url(#linearGradient1047-5);fill-opacity:1;fill-rule:evenodd;stroke:#f3d7bb;stroke-width:0.372757;stroke-linecap:round;stroke-linejoin:round;stroke-miterlimit:4;stroke-dasharray:none;stroke-dashoffset:77.8666;stroke-opacity:1;paint-order:fill markers stroke;stop-color:#000000"
       d="m 175.42896,72.548465 c -1.33717,2.980487 -4.07718,4.653684 -6.11997,3.737187 -2.04284,-0.916495 -2.61485,-4.075656 -1.27776,-7.056158 1.33719,-2.980489 6.47603,-5.179976 6.47603,-5.179976 0,0 2.25885,5.51843 0.92188,8.498918 z"
       sodipodi:nodetypes="ssscs" />
    <path
       id="path1038-9"
       style="opacity:0.594655;fill:url(#linearGradient1047-9);fill-opacity:1;fill-rule:evenodd;stroke:#f3d7bb;stroke-width:0.372757;stroke-linecap:round;stroke-linejoin:round;stroke-miterlimit:4;stroke-dasharray:none;stroke-dashoffset:77.8666;stroke-opacity:1;paint-order:fill markers stroke;stop-color:#000000"
       d="m 265.09804,103.57087 c -1.33721,2.98049 -4.07723,4.65367 -6.12003,3.73719 -2.04283,-0.91652 -2.61484,-4.07563 -1.27775,-7.05616 1.33722,-2.980493 6.47594,-5.179956 6.47594,-5.179956 0,0 2.25894,5.518416 0.9219,8.498906 z"
       sodipodi:nodetypes="ssscs" />
    <path
       id="path1038-2"
       style="opacity:0.594655;fill:url(#linearGradient1047-0);fill-opacity:1;fill-rule:evenodd;stroke:#f3d7bb;stroke-width:0.372757;stroke-linecap:round;stroke-linejoin:round;stroke-miterlimit:4;stroke-dasharray:none;stroke-dashoffset:77.8666;stroke-opacity:1;paint-order:fill markers stroke;stop-color:#000000"
       d="m 228.60345,135.31768 c -1.33717,2.98057 -4.07716,4.65376 -6.12,3.73723 -2.04277,-0.91647 -2.61484,-4.07564 -1.27775,-7.05611 1.33724,-2.9805 6.47604,-5.18002 6.47604,-5.18002 0,0 2.25885,5.51845 0.92157,8.49896 z"
       sodipodi:nodetypes="ssscs" />
    <path
       id="path1038-57"
       style="opacity:0.594655;fill:url(#linearGradient1047-1);fill-opacity:1;fill-rule:evenodd;stroke:#f3d7bb;stroke-width:0.372757;stroke-linecap:round;stroke-linejoin:round;stroke-miterlimit:4;stroke-dasharray:none;stroke-dashoffset:77.8666;stroke-opacity:1;paint-order:fill markers stroke;stop-color:#000000"
       d="m 239.2799,104.96862 c -1.33717,2.9805 -4.07725,4.6537 -6.12001,3.73723 -2.04284,-0.91652 -2.61485,-4.07564 -1.27774,-7.05612 1.33709,-2.98054 6.47591,-5.180025 6.47591,-5.180025 0,0 2.25885,5.518485 0.92191,8.498945 z"
       sodipodi:nodetypes="ssscs" />
    <path
       id="path1038-8"
       style="opacity:0.594655;fill:url(#linearGradient1047-8);fill-opacity:1;fill-rule:evenodd;stroke:#f3d7bb;stroke-width:0.372757;stroke-linecap:round;stroke-linejoin:round;stroke-miterlimit:4;stroke-dasharray:none;stroke-dashoffset:77.8666;stroke-opacity:1;paint-order:fill markers stroke;stop-color:#000000"
       d="m 190.0989,145.542 c -1.33712,2.98047 -4.07716,4.65371 -6.11995,3.73717 -2.04282,-0.91647 -2.61482,-4.07564 -1.27775,-7.05608 1.33717,-2.98054 6.476,-5.18 6.476,-5.18 0,0 2.25885,5.51842 0.92158,8.49893 z"
       sodipodi:nodetypes="ssscs" />
    <path
       id="path1038-1"
       style="opacity:0.594655;fill:url(#linearGradient1047-85);fill-opacity:1;fill-rule:evenodd;stroke:#f3d7bb;stroke-width:0.372757;stroke-linecap:round;stroke-linejoin:round;stroke-miterlimit:4;stroke-dasharray:none;stroke-dashoffset:77.8666;stroke-opacity:1;paint-order:fill markers stroke;stop-color:#000000"
       d="m 139.32342,125.35535 c -1.33723,2.98048 -4.07722,4.65367 -6.12006,3.7372 -2.04271,-0.91654 -2.61482,-4.07563 -1.27744,-7.05619 1.33719,-2.98049 6.47602,-5.17995 6.47602,-5.17995 0,0 2.25885,5.5184 0.92158,8.49893 z"
       sodipodi:nodetypes="ssscs" />
    <path
       id="path1038-4"
       style="opacity:0.594655;fill:url(#linearGradient1047-55);fill-opacity:1;fill-rule:evenodd;stroke:#f3d7bb;stroke-width:0.372757;stroke-linecap:round;stroke-linejoin:round;stroke-miterlimit:4;stroke-dasharray:none;stroke-dashoffset:77.8666;stroke-opacity:1;paint-order:fill markers stroke;stop-color:#000000"
       d="m 174.20097,105.4184 c -1.33723,2.98053 -4.07723,4.65372 -6.12,3.73719 -2.04282,-0.91647 -2.6149,-4.07563 -1.27775,-7.05612 1.33711,-2.980488 6.47591,-5.179996 6.47591,-5.179996 0,0 2.25885,5.518446 0.92191,8.498926 z"
       sodipodi:nodetypes="ssscs" />
    <path
       id="path1038-4-4"
       style="opacity:0.594655;fill:url(#linearGradient1047-55-0);fill-opacity:1;fill-rule:evenodd;stroke:#f3d7bb;stroke-width:0.372757;stroke-linecap:round;stroke-linejoin:round;stroke-miterlimit:4;stroke-dasharray:none;stroke-dashoffset:77.8666;stroke-opacity:1;paint-order:fill markers stroke;stop-color:#000000"
       d="m 223.99816,72.821967 c -1.33725,2.980502 -4.07725,4.653698 -6.12009,3.737203 -2.0427,-0.916496 -2.61483,-4.075629 -1.27744,-7.056146 1.33721,-2.980502 6.47601,-5.180018 6.47601,-5.180018 0,0 2.25887,5.518459 0.9216,8.498961 z"
       sodipodi:nodetypes="ssscs" />
    <path
       id="path1038-4-5"
       style="opacity:0.594655;fill:url(#linearGradient1047-55-8);fill-opacity:1;fill-rule:evenodd;stroke:#f3d7bb;stroke-width:0.372757;stroke-linecap:round;stroke-linejoin:round;stroke-miterlimit:4;stroke-dasharray:none;stroke-dashoffset:77.8666;stroke-opacity:1;paint-order:fill markers stroke;stop-color:#000000"
       d="m 246.41575,152.14605 c -1.33717,2.9805 -4.07719,4.65369 -6.12001,3.73719 -2.04281,-0.91649 -2.61484,-4.07567 -1.27777,-7.05614 1.33724,-2.9805 6.476,-5.17995 6.476,-5.17995 0,0 2.25891,5.51837 0.9219,8.49889 z"
       sodipodi:nodetypes="ssscs" />
    <path
       id="path1038-4-1"
       style="opacity:0.594655;fill:url(#linearGradient1047-55-04);fill-opacity:1;fill-rule:evenodd;stroke:#f3d7bb;stroke-width:0.372757;stroke-linecap:round;stroke-linejoin:round;stroke-miterlimit:4;stroke-dasharray:none;stroke-dashoffset:77.8666;stroke-opacity:1;paint-order:fill markers stroke;stop-color:#000000"
       d="m 144.68865,174.74473 c -1.3372,2.98048 -4.07722,4.65368 -6.12003,3.73718 -2.04283,-0.91652 -2.61484,-4.07567 -1.27776,-7.05615 1.33714,-2.98048 6.47596,-5.17995 6.47596,-5.17995 0,0 2.25883,5.5184 0.9219,8.49891 z"
       sodipodi:nodetypes="ssscs" />
    <path
       id="path1038-4-6"
       style="opacity:0.594655;fill:url(#linearGradient1047-55-5);fill-opacity:1;fill-rule:evenodd;stroke:#f3d7bb;stroke-width:0.372757;stroke-linecap:round;stroke-linejoin:round;stroke-miterlimit:4;stroke-dasharray:none;stroke-dashoffset:77.8666;stroke-opacity:1;paint-order:fill markers stroke;stop-color:#000000"
       d="m 110.15657,153.84645 c -1.33714,2.98049 -4.0772,4.65373 -6.12004,3.7372 -2.04278,-0.91647 -2.61477,-4.07564 -1.27775,-7.05612 1.33724,-2.98054 6.47606,-5.17999 6.47606,-5.17999 0,0 2.25886,5.51844 0.92188,8.49889 z"
       sodipodi:nodetypes="ssscs" />
    <path
       id="path1038-4-47"
       style="opacity:0.594655;fill:url(#linearGradient1047-55-4);fill-opacity:1;fill-rule:evenodd;stroke:#f3d7bb;stroke-width:0.372757;stroke-linecap:round;stroke-linejoin:round;stroke-miterlimit:4;stroke-dasharray:none;stroke-dashoffset:77.8666;stroke-opacity:1;paint-order:fill markers stroke;stop-color:#000000"
       d="m 111.18837,122.58597 c -1.33721,2.98044 -4.07719,4.65365 -6.12003,3.73712 -2.04283,-0.91646 -2.61482,-4.07566 -1.27776,-7.05609 1.33717,-2.98049 6.47597,-5.18001 6.47597,-5.18001 0,0 2.25887,5.51844 0.9219,8.49897 z"
       sodipodi:nodetypes="ssscs" />
    <path
       id="path1038-4-2"
       style="opacity:0.594655;fill:url(#linearGradient1047-55-3);fill-opacity:1;fill-rule:evenodd;stroke:#f3d7bb;stroke-width:0.372757;stroke-linecap:round;stroke-linejoin:round;stroke-miterlimit:4;stroke-dasharray:none;stroke-dashoffset:77.8666;stroke-opacity:1;paint-order:fill markers stroke;stop-color:#000000"
       d="m 128.03802,99.169921 c -1.33719,2.980499 -4.0772,4.653709 -6.12001,3.737249 -2.04284,-0.91652 -2.61483,-4.075657 -1.27777,-7.056189 1.33716,-2.980452 6.47597,-5.179926 6.47597,-5.179926 0,0 2.25884,5.518448 0.9219,8.4989 z"
       sodipodi:nodetypes="ssscs" />
    <path
       id="path1038-4-65"
       style="opacity:0.594655;fill:url(#linearGradient1047-55-34);fill-opacity:1;fill-rule:evenodd;stroke:#f3d7bb;stroke-width:0.372757;stroke-linecap:round;stroke-linejoin:round;stroke-miterlimit:4;stroke-dasharray:none;stroke-dashoffset:77.8666;stroke-opacity:1;paint-order:fill markers stroke;stop-color:#000000"
       d="m 197.35378,61.449689 c -1.33724,2.980516 -4.07716,4.653726 -6.11999,3.737203 -2.04285,-0.916482 -2.61485,-4.075644 -1.27777,-7.056118 1.33719,-2.980487 6.47597,-5.179974 6.47597,-5.179974 0,0 2.25888,5.518415 0.92189,8.498875 z"
       sodipodi:nodetypes="ssscs" />
    <path
       id="path1038-4-68"
       style="opacity:0.594655;fill:url(#linearGradient1047-55-2);fill-opacity:1;fill-rule:evenodd;stroke:#f3d7bb;stroke-width:0.372757;stroke-linecap:round;stroke-linejoin:round;stroke-miterlimit:4;stroke-dasharray:none;stroke-dashoffset:77.8666;stroke-opacity:1;paint-order:fill markers stroke;stop-color:#000000"
       d="m 252.98841,70.75162 c -1.33718,2.980489 -4.07722,4.653699 -6.12001,3.737189 -2.04284,-0.916524 -2.61487,-4.075671 -1.27776,-7.05616 1.33712,-2.980473 6.47594,-5.179961 6.47594,-5.179961 0,0 2.25885,5.518416 0.92188,8.498919 z"
       sodipodi:nodetypes="ssscs" />
    <path
       id="path1038-4-24"
       style="opacity:0.594655;fill:url(#linearGradient1047-55-58);fill-opacity:1;fill-rule:evenodd;stroke:#f3d7bb;stroke-width:0.372757;stroke-linecap:round;stroke-linejoin:round;stroke-miterlimit:4;stroke-dasharray:none;stroke-dashoffset:77.8666;stroke-opacity:1;paint-order:fill markers stroke;stop-color:#000000"
       d="m 292.81877,78.611439 c -1.33717,2.980487 -4.07718,4.653691 -6.12001,3.737188 -2.04284,-0.916492 -2.61483,-4.075653 -1.27775,-7.056127 1.33719,-2.980487 6.47595,-5.179989 6.47595,-5.179989 0,0 2.25888,5.518458 0.92191,8.498917 z"
       sodipodi:nodetypes="ssscs" />
    <path
       id="path1038-4-7"
       style="opacity:0.594655;fill:url(#linearGradient1047-55-1);fill-opacity:1;fill-rule:evenodd;stroke:#f3d7bb;stroke-width:0.372757;stroke-linecap:round;stroke-linejoin:round;stroke-miterlimit:4;stroke-dasharray:none;stroke-dashoffset:77.8666;stroke-opacity:1;paint-order:fill markers stroke;stop-color:#000000"
       d="m 303.89262,130.41873 c -1.33717,2.98049 -4.07716,4.65369 -6.12001,3.7372 -2.04276,-0.91652 -2.61484,-4.07569 -1.27776,-7.05616 1.33725,-2.98049 6.476,-5.17995 6.476,-5.17995 0,0 2.25892,5.5184 0.92158,8.49893 z"
       sodipodi:nodetypes="ssscs" />
    <path
       id="path1038-4-3"
       style="opacity:0.594655;fill:url(#linearGradient1047-55-53);fill-opacity:1;fill-rule:evenodd;stroke:#f3d7bb;stroke-width:0.372757;stroke-linecap:round;stroke-linejoin:round;stroke-miterlimit:4;stroke-dasharray:none;stroke-dashoffset:77.8666;stroke-opacity:1;paint-order:fill markers stroke;stop-color:#000000"
       d="m 200.56331,104.26355 c -1.33714,2.9805 -4.0772,4.65371 -6.12002,3.73719 -2.04279,-0.91647 -2.61479,-4.07567 -1.27775,-7.05614 1.33721,-2.98049 6.47598,-5.179987 6.47598,-5.179987 0,0 2.25894,5.518437 0.9216,8.498947 z"
       sodipodi:nodetypes="ssscs" />
    <path
       id="path1038-4-29"
       style="opacity:0.594655;fill:url(#linearGradient1047-55-20);fill-opacity:1;fill-rule:evenodd;stroke:#f3d7bb;stroke-width:0.372757;stroke-linecap:round;stroke-linejoin:round;stroke-miterlimit:4;stroke-dasharray:none;stroke-dashoffset:77.8666;stroke-opacity:1;paint-order:fill markers stroke;stop-color:#000000"
       d="m 284.75211,52.818623 c -1.33719,2.980488 -4.07718,4.653698 -6.11999,3.737188 -2.04283,-0.916495 -2.61483,-4.075642 -1.27774,-7.056116 1.33713,-2.980489 6.47595,-5.180005 6.47595,-5.180005 0,0 2.25886,5.518459 0.92189,8.498919 z"
       sodipodi:nodetypes="ssscs" />
    <path
       id="path1038-4-70"
       style="opacity:0.594655;fill:url(#linearGradient1047-55-7);fill-opacity:1;fill-rule:evenodd;stroke:#f3d7bb;stroke-width:0.372757;stroke-linecap:round;stroke-linejoin:round;stroke-miterlimit:4;stroke-dasharray:none;stroke-dashoffset:77.8666;stroke-opacity:1;paint-order:fill markers stroke;stop-color:#000000"
       d="m 336.84538,66.544395 c -1.33717,2.980487 -4.07724,4.653725 -6.11999,3.737215 -2.04284,-0.916509 -2.61486,-4.07567 -1.27777,-7.056144 1.33717,-2.980488 6.47596,-5.179975 6.47596,-5.179975 0,0 2.25889,5.51843 0.92191,8.498889 z"
       sodipodi:nodetypes="ssscs" />
    <path
       id="path1038-4-49"
       style="opacity:0.594655;fill:url(#linearGradient1047-55-85);fill-opacity:1;fill-rule:evenodd;stroke:#f3d7bb;stroke-width:0.372757;stroke-linecap:round;stroke-linejoin:round;stroke-miterlimit:4;stroke-dasharray:none;stroke-dashoffset:77.8666;stroke-opacity:1;paint-order:fill markers stroke;stop-color:#000000"
       d="m 352.68708,111.47286 c -1.3372,2.98046 -4.07719,4.65366 -6.12002,3.73721 -2.04279,-0.91654 -2.6148,-4.07566 -1.27776,-7.05616 1.33717,-2.98049 6.47599,-5.17997 6.47599,-5.17997 0,0 2.25886,5.51845 0.92159,8.49895 z"
       sodipodi:nodetypes="ssscs" />
    <path
       id="path1038-4-18"
       style="opacity:0.594655;fill:url(#linearGradient1047-55-39);fill-opacity:1;fill-rule:evenodd;stroke:#f3d7bb;stroke-width:0.372757;stroke-linecap:round;stroke-linejoin:round;stroke-miterlimit:4;stroke-dasharray:none;stroke-dashoffset:77.8666;stroke-opacity:1;paint-order:fill markers stroke;stop-color:#000000"
       d="m 308.93036,99.249465 c -1.33719,2.980465 -4.07718,4.653715 -6.12001,3.737195 -2.04283,-0.91648 -2.61488,-4.075649 -1.27775,-7.05617 1.33711,-2.980497 6.47591,-5.179982 6.47591,-5.179982 0,0 2.25885,5.518436 0.92192,8.498945 z"
       sodipodi:nodetypes="ssscs" />
    <path
       id="path1038-4-16"
       style="opacity:0.594655;fill:url(#linearGradient1047-55-33);fill-opacity:1;fill-rule:evenodd;stroke:#f3d7bb;stroke-width:0.372757;stroke-linecap:round;stroke-linejoin:round;stroke-miterlimit:4;stroke-dasharray:none;stroke-dashoffset:77.8666;stroke-opacity:1;paint-order:fill markers stroke;stop-color:#000000"
       d="m 320.92576,172.09334 c -1.33714,2.9805 -4.07717,4.6537 -6.11999,3.73721 -2.04282,-0.91654 -2.61486,-4.07567 -1.27777,-7.05616 1.33724,-2.9805 6.476,-5.17995 6.476,-5.17995 0,0 2.2589,5.51841 0.92158,8.49893 z"
       sodipodi:nodetypes="ssscs" />
    <path
       id="path1038-4-9"
       style="opacity:0.594655;fill:url(#linearGradient1047-55-44);fill-opacity:1;fill-rule:evenodd;stroke:#f3d7bb;stroke-width:0.372757;stroke-linecap:round;stroke-linejoin:round;stroke-miterlimit:4;stroke-dasharray:none;stroke-dashoffset:77.8666;stroke-opacity:1;paint-order:fill markers stroke;stop-color:#000000"
       d="m 374.08493,82.254889 c -1.33716,2.980532 -4.07722,4.653725 -6.12,3.737199 -2.04283,-0.916447 -2.61485,-4.075641 -1.27775,-7.056116 1.33717,-2.980486 6.47597,-5.179958 6.47597,-5.179958 0,0 2.25884,5.518412 0.92158,8.498898 z"
       sodipodi:nodetypes="ssscs" />
    <path
       id="path1038-4-0"
       style="opacity:0.594655;fill:url(#linearGradient1047-55-41);fill-opacity:1;fill-rule:evenodd;stroke:#f3d7bb;stroke-width:0.372757;stroke-linecap:round;stroke-linejoin:round;stroke-miterlimit:4;stroke-dasharray:none;stroke-dashoffset:77.8666;stroke-opacity:1;paint-order:fill markers stroke;stop-color:#000000"
       d="m 344.18113,87.833656 c -1.33714,2.980486 -4.07719,4.653691 -6.11997,3.737233 -2.04282,-0.916526 -2.61482,-4.075653 -1.27774,-7.05615 1.3372,-2.980521 6.47598,-5.179994 6.47598,-5.179994 0,0 2.25892,5.518425 0.92159,8.498968 z"
       sodipodi:nodetypes="ssscs" />
    <path
       id="path1038-4-50"
       style="opacity:0.594655;fill:url(#linearGradient1047-55-77);fill-opacity:1;fill-rule:evenodd;stroke:#f3d7bb;stroke-width:0.372757;stroke-linecap:round;stroke-linejoin:round;stroke-miterlimit:4;stroke-dasharray:none;stroke-dashoffset:77.8666;stroke-opacity:1;paint-order:fill markers stroke;stop-color:#000000"
       d="m 381.17051,152.64592 c -1.33717,2.98052 -4.07717,4.6537 -6.12,3.73719 -2.04277,-0.91646 -2.61483,-4.07563 -1.27775,-7.05611 1.3372,-2.98051 6.47601,-5.18002 6.47601,-5.18002 0,0 2.25885,5.51846 0.92158,8.49895 z"
       sodipodi:nodetypes="ssscs" />
    <path
       id="path1038-4-299"
       style="opacity:0.594655;fill:url(#linearGradient1047-55-49);fill-opacity:1;fill-rule:evenodd;stroke:#f3d7bb;stroke-width:0.372757;stroke-linecap:round;stroke-linejoin:round;stroke-miterlimit:4;stroke-dasharray:none;stroke-dashoffset:77.8666;stroke-opacity:1;paint-order:fill markers stroke;stop-color:#000000"
       d="m 414.74354,109.02113 c -1.33716,2.98052 -4.07718,4.65374 -6.12,3.7372 -2.04279,-0.91647 -2.61483,-4.07564 -1.27774,-7.05612 1.33716,-2.98048 6.47598,-5.18002 6.47598,-5.18002 0,0 2.25884,5.51847 0.92158,8.49896 z"
       sodipodi:nodetypes="ssscs" />
    <path
       id="path1038-4-495"
       style="opacity:0.594655;fill:url(#linearGradient1047-55-9);fill-opacity:1;fill-rule:evenodd;stroke:#f3d7bb;stroke-width:0.372757;stroke-linecap:round;stroke-linejoin:round;stroke-miterlimit:4;stroke-dasharray:none;stroke-dashoffset:77.8666;stroke-opacity:1;paint-order:fill markers stroke;stop-color:#000000"
       d="m 349.81111,167.62641 c -1.33721,2.98048 -4.07724,4.6537 -6.12003,3.73722 -2.04284,-0.91653 -2.61485,-4.0757 -1.27777,-7.05618 1.33712,-2.98048 6.47594,-5.17993 6.47594,-5.17993 0,0 2.25885,5.5184 0.92188,8.49887 z"
       sodipodi:nodetypes="ssscs" />
    <path
       id="path1038-4-39"
       style="opacity:0.594655;fill:url(#linearGradient1047-55-35);fill-opacity:1;fill-rule:evenodd;stroke:#f3d7bb;stroke-width:0.372757;stroke-linecap:round;stroke-linejoin:round;stroke-miterlimit:4;stroke-dasharray:none;stroke-dashoffset:77.8666;stroke-opacity:1;paint-order:fill markers stroke;stop-color:#000000"
       d="m 243.16469,53.573276 c -1.33717,2.980488 -4.07716,4.653684 -6.11999,3.737189 -2.04277,-0.916497 -2.61484,-4.075644 -1.27776,-7.056146 1.33725,-2.980502 6.47599,-5.179975 6.47599,-5.179975 0,0 2.25892,5.518444 0.92159,8.498961 z"
       sodipodi:nodetypes="ssscs" />
  </g>
</svg>
